<?xml version="1.0" standalone="yes"?>
<svg xmlns="http://www.w3.org/2000/svg" width="139" height="135">
<path style="fill:#030202; stroke:none;" d="M0 0L0 135L139 135L139 0L0 0z"/>
<path style="fill:#c9ac97; stroke:none;" d="M66 16L67 17L66 16z"/>
<path style="fill:#ab672b; stroke:none;" d="M67 16L68 17L67 16M65 17L66 18L65 17z"/>
<path style="fill:#faebc6; stroke:none;" d="M66 17C67.7812 22.3689 69.7451 24.7723 75 27C73.3585 34.2068 94.4285 37.1168 101 37L101 36L66 17z"/>
<path style="fill:#ebb23a; stroke:none;" d="M68 17L69 18L68 17M65 18L63 28L67 27L65 34L70 24L65 18z"/>
<path style="fill:#c9ac97; stroke:none;" d="M70 18L71 19L70 18z"/>
<path style="fill:#ab672b; stroke:none;" d="M72 19L73 20L72 19M64 20L65 21L64 20z"/>
<path style="fill:#ebb23a; stroke:none;" d="M73 20L74 21L73 20z"/>
<path style="fill:#ab672b; stroke:none;" d="M74 20L75 21L74 20z"/>
<path style="fill:#ebb23a; stroke:none;" d="M75 21L76 22L75 21z"/>
<path style="fill:#ab672b; stroke:none;" d="M89 21L90 22L89 21z"/>
<path style="fill:#ebb23a; stroke:none;" d="M90.6667 21.3333L91.3333 21.6667L90.6667 21.3333z"/>
<path style="fill:#ab672b; stroke:none;" d="M92 21L93 22L92 21M63 22L64 23L63 22M77 22L78 23L77 22z"/>
<path style="fill:#ebb23a; stroke:none;" d="M88 22L89 23L88 22z"/>
<path style="fill:#faebc6; stroke:none;" d="M87 25L95 24C91.8514 21.6638 89.6708 22.2823 87 25z"/>
<path style="fill:#ebb23a; stroke:none;" d="M94 22L95 33C98.916 29.161 98.0386 25.3644 94 22z"/>
<path style="fill:#ab672b; stroke:none;" d="M95 22L96 23L95 22z"/>
<path style="fill:#ebb23a; stroke:none;" d="M78 23L79 24L78 23z"/>
<path style="fill:#ab672b; stroke:none;" d="M79 23L80 24L79 23z"/>
<path style="fill:#c9ac97; stroke:none;" d="M87 23L88 24L87 23z"/>
<path style="fill:#ebb23a; stroke:none;" d="M90 23L91 24L90 23z"/>
<path style="fill:#ab672b; stroke:none;" d="M91 23L92 24L91 23z"/>
<path style="fill:#ebb23a; stroke:none;" d="M92 23L93 24L92 23z"/>
<path style="fill:#ab672b; stroke:none;" d="M96 23L97 24L96 23z"/>
<path style="fill:#ebb23a; stroke:none;" d="M80 24L81 25L80 24z"/>
<path style="fill:#ab672b; stroke:none;" d="M81 24L82 25L81 24M89 24L90 25L89 24z"/>
<path style="fill:#030202; stroke:none;" d="M89 25L89 27L96 30C95.294 25.5734 93.4348 24.0118 89 25z"/>
<path style="fill:#ab672b; stroke:none;" d="M94 24L95 25L94 24M97 24L98 25L97 24M62 25L63 26L62 25M69 25L72 32L74 27L69 25z"/>
<path style="fill:#ebb23a; stroke:none;" d="M71 25L72 26L71 25M82 25L83 26L82 25z"/>
<path style="fill:#ab672b; stroke:none;" d="M85 25L85 27L87 25L85 25z"/>
<path style="fill:#ebb23a; stroke:none;" d="M85 28L91 31L92 31L89 29L89 25L85 28z"/>
<path style="fill:#ab672b; stroke:none;" d="M95 25L96 26L95 25z"/>
<path style="fill:#faebc6; stroke:none;" d="M62 26L54 46L62 53C52.8982 47.7137 47.3333 50.5042 39 56L41 60C45.0182 58.8402 49.5449 54.7173 53.5756 54.5455C63.1034 54.1395 57.1431 61.4585 54 64L53 64C47.9955 61.4926 45.3392 66.5412 45 71C37.77 66.7761 32.3484 65 24 65L24 66C29.3543 68.241 35.3831 70.6471 36 77C48.0147 74.422 58.8859 87.7921 70 91L70 85L71 85L71 89C73.563 88.4614 77.5104 89.065 79.7407 87.8627C87.2578 83.8103 86.7319 73.1717 88 66L100 71L103 56L104 56L104 61L105 61L112 43L105 44L98 64C89.503 60.2069 95.9471 55.6901 91.3927 50.4375C87.2305 45.6371 82.6871 50.6545 82 55C75.2388 52.0152 74.7284 48.893 75 42L70 48L61 42L66 36L67 27L62 26z"/>
<path style="fill:#ebb23a; stroke:none;" d="M72.6667 26.3333L73.3333 26.6667L72.6667 26.3333z"/>
<path style="fill:#c9ac97; stroke:none;" d="M84 26L85 27L84 26z"/>
<path style="fill:#ab672b; stroke:none;" d="M88 26L89 27L88 26M98 26L98 30L99 30L98 26M61 27L62 28L61 27z"/>
<path style="fill:#ebb23a; stroke:none;" d="M74 27L75 28L74 27z"/>
<path style="fill:#ab672b; stroke:none;" d="M89.3333 27.6667L89.6667 28.3333L89.3333 27.6667z"/>
<path style="fill:#ebb23a; stroke:none;" d="M61 28L62 29L61 28M73 28L74 29L73 28z"/>
<path style="fill:#ab672b; stroke:none;" d="M91 28L92 29L91 28M60 29L61 30L60 29z"/>
<path style="fill:#c9ac97; stroke:none;" d="M73 29L72 32L68 30L62 44L70 48L75 42L75 52L79 32L73 29z"/>
<path style="fill:#ab672b; stroke:none;" d="M90 29L91 30L90 29M92.3333 29.6667L92.6667 30.3333L92.3333 29.6667z"/>
<path style="fill:#c9ac97; stroke:none;" d="M60 30L61 31L60 30z"/>
<path style="fill:#ebb23a; stroke:none;" d="M93.3333 30.6667L93.6667 31.3333L93.3333 30.6667z"/>
<path style="fill:#ab672b; stroke:none;" d="M94 30L94 32L96 30L94 30M59 31L60 32L59 31z"/>
<path style="fill:#ebb23a; stroke:none;" d="M79 31C83.7239 37.7533 98.0254 45.1753 106 47L105 44L112 43L105 61L104 61L104 56L103 56L99 72C105.941 70.8258 117.759 49.4197 112.639 43.3287C106.714 36.28 99.962 38.7546 92.5756 36.7454C87.7235 35.4255 84.0827 31.9173 79 31z"/>
<path style="fill:#ab672b; stroke:none;" d="M97 31L98 34L97 31z"/>
<path style="fill:#c9ac97; stroke:none;" d="M59 32L60 33L59 32z"/>
<path style="fill:#ab672b; stroke:none;" d="M77 34L77 51C80.8459 49.606 81.9708 45.0653 86.0154 43.8364C93.0813 41.6897 96.1261 51.88 102 54L105 47C97.4499 43.0233 85.6289 32.0275 77 34z"/>
<path style="fill:#c9ac97; stroke:none;" d="M96 33L97 34L96 33M58 34L59 35L58 34z"/>
<path style="fill:#ab672b; stroke:none;" d="M98 34L99 35L98 34z"/>
<path style="fill:#ebb23a; stroke:none;" d="M64 35L61 43C63.9889 41.0387 65.6855 38.3381 64 35z"/>
<path style="fill:#c9ac97; stroke:none;" d="M99 35L100 36L99 35z"/>
<path style="fill:#ab672b; stroke:none;" d="M100 35L101 36L100 35M57 36L58 37L57 36z"/>
<path style="fill:#c9ac97; stroke:none;" d="M57 37L58 38L57 37z"/>
<path style="fill:#ab672b; stroke:none;" d="M103 37L104 38L103 37M105 38L106 39L105 38z"/>
<path style="fill:#c9ac97; stroke:none;" d="M56 39L57 40L56 39z"/>
<path style="fill:#ab672b; stroke:none;" d="M107 39L108 40L107 39z"/>
<path style="fill:#ebb23a; stroke:none;" d="M78 40L78 44L79 44L78 40z"/>
<path style="fill:#ab672b; stroke:none;" d="M55 41L56 42L55 41M110 41L111 42L110 41z"/>
<path style="fill:#ebb23a; stroke:none;" d="M55 42L56 43L55 42z"/>
<path style="fill:#ab672b; stroke:none;" d="M112 42L113 43L112 42M54 43L55 44L54 43z"/>
<path style="fill:#ebb23a; stroke:none;" d="M81 47C94.528 40.239 93.654 51.7161 91 61L98 64L102 54C94.7828 50.2926 89.8651 36.9556 81 47z"/>
<path style="fill:#ab672b; stroke:none;" d="M113 43L114 44L113 43z"/>
<path style="fill:#ebb23a; stroke:none;" d="M54 44L55 45L54 44z"/>
<path style="fill:#c9ac97; stroke:none;" d="M81 55L82 55C84.0907 47.7364 90.9093 47.7364 93 55C97.1091 48.0825 88.2607 39.9431 82.6034 46.4336C80.611 48.7194 81.0099 52.1904 81 55z"/>
<path style="fill:#ab672b; stroke:none;" d="M114 44L115 45L114 44z"/>
<path style="fill:#ebb23a; stroke:none;" d="M77 45L77 49L78 49L77 45z"/>
<path style="fill:#ab672b; stroke:none;" d="M115 45C111.76 53.3532 108.25 67.4745 100 72L100 73C105.838 73.6193 110.25 72.7314 114 68L108 72C110.428 63.7875 119.401 54.5225 115 45M39 56L40 56L52 49C44.8161 43.2885 39.0968 47.8098 39 56M55 46L56 47L55 46z"/>
<path style="fill:#c9ac97; stroke:none;" d="M57 47L58 48L57 47z"/>
<path style="fill:#ebb23a; stroke:none;" d="M116 47L114.297 60L108 72C116.192 67.6573 121.049 55.4291 116 47M52.6667 48.3333L53.3333 48.6667L52.6667 48.3333z"/>
<path style="fill:#ab672b; stroke:none;" d="M54 48L55 49L54 48M58 48L59 49L58 48z"/>
<path style="fill:#ebb23a; stroke:none;" d="M80 48L76 50L81 55L80 48z"/>
<path style="fill:#c9ac97; stroke:none;" d="M104 48L105 49L104 48z"/>
<path style="fill:#ab672b; stroke:none;" d="M117.333 48.6667L117.667 49.3333L117.333 48.6667z"/>
<path style="fill:#c9ac97; stroke:none;" d="M49.6667 49.3333L50.3333 49.6667L49.6667 49.3333z"/>
<path style="fill:#ebb23a; stroke:none;" d="M55 49L56 50L55 49z"/>
<path style="fill:#ab672b; stroke:none;" d="M56 49L57 50L56 49M59 49L59 51L61 51L59 49z"/>
<path style="fill:#c9ac97; stroke:none;" d="M60 49L61 50L60 49M47.6667 50.3333L48.3333 50.6667L47.6667 50.3333z"/>
<path style="fill:#ab672b; stroke:none;" d="M57 50L58 51L57 50z"/>
<path style="fill:#c9ac97; stroke:none;" d="M59 51L59 52L62 53L62 50L59 51z"/>
<path style="fill:#ebb23a; stroke:none;" d="M103 50L104 51L103 50z"/>
<path style="fill:#c9ac97; stroke:none;" d="M46 51L47 52L46 51M44 52L45 53L44 52z"/>
<path style="fill:#ebb23a; stroke:none;" d="M102.333 52.6667L102.667 53.3333L102.333 52.6667z"/>
<path style="fill:#c9ac97; stroke:none;" d="M42 53L43 54L42 53z"/>
<path style="fill:#ebb23a; stroke:none;" d="M53 53L57 56L55 59L60 59L53 53z"/>
<path style="fill:#c9ac97; stroke:none;" d="M40.6667 54.3333L41.3333 54.6667L40.6667 54.3333M52 54L42 60L42 70L45 71C45.6681 66.7091 48.2281 62.5164 53 64L54 64L61 58L53 61L52 54z"/>
<path style="fill:#ab672b; stroke:none;" d="M53 54L53 61L54 61L57 56L53 54z"/>
<path style="fill:#c9ac97; stroke:none;" d="M67 56L68 57L71 56L67 56z"/>
<path style="fill:#ab672b; stroke:none;" d="M69 55L74 59L69 55z"/>
<path style="fill:#ebb23a; stroke:none;" d="M38 56L25 64L25 65L42 61L38 56z"/>
<path style="fill:#c9ac97; stroke:none;" d="M72 56L73 57L72 56M92 56L93 57L92 56z"/>
<path style="fill:#ab672b; stroke:none;" d="M36 57L37 58L36 57z"/>
<path style="fill:#c9ac97; stroke:none;" d="M70 57L71 58L70 57M74 57L75 58L74 57z"/>
<path style="fill:#ab672b; stroke:none;" d="M34 58L35 59L34 58z"/>
<path style="fill:#c9ac97; stroke:none;" d="M71.6667 58.3333L72.3333 58.6667L71.6667 58.3333z"/>
<path style="fill:#030202; stroke:none;" d="M74 58L80 63L74 58z"/>
<path style="fill:#ab672b; stroke:none;" d="M76 58L77 59L76 58z"/>
<path style="fill:#c9ac97; stroke:none;" d="M91 58L92 59L91 58z"/>
<path style="fill:#ab672b; stroke:none;" d="M117.333 58.6667L117.667 59.3333L117.333 58.6667z"/>
<path style="fill:#c9ac97; stroke:none;" d="M73 59L74 60L73 59z"/>
<path style="fill:#ebb23a; stroke:none;" d="M78 59L79 60L78 59M74 60L80 64L80 63L74 60z"/>
<path style="fill:#ab672b; stroke:none;" d="M75 60L76 61L75 60M79 60L80 61L79 60M29 61L30 62L29 61M35 64L35 66L43 69L42 61L35 64M76 61L77 62L76 61M80 61L85 65L85 64L80 61z"/>
<path style="fill:#c9ac97; stroke:none;" d="M81 61L82 62L81 61z"/>
<path style="fill:#ab672b; stroke:none;" d="M27 62L28 63L27 62M78 62L79 63L78 62z"/>
<path style="fill:#c9ac97; stroke:none;" d="M82.6667 62.3333L83.3333 62.6667L82.6667 62.3333z"/>
<path style="fill:#ab672b; stroke:none;" d="M116 62L117 63L116 62M26 63L27 64L26 63z"/>
<path style="fill:#c9ac97; stroke:none;" d="M80 63L81 64L80 63M84 63L85 64L84 63z"/>
<path style="fill:#ab672b; stroke:none;" d="M24 64L25 65L24 64z"/>
<path style="fill:#c9ac97; stroke:none;" d="M82 64L83 65L82 64M85 64L83 65L83 66L85 64z"/>
<path style="fill:#ab672b; stroke:none;" d="M23 65L23 73L24 73L23 65M115 65L116 66L115 65z"/>
<path style="fill:#ebb23a; stroke:none;" d="M24 66C24.1391 71.7501 25.6744 74.5995 31 77L31 76L28 75L29 70L34 78L32 77L32 78L40 82L43 78L42 85L49 85L49 86L47 87L59 94L60 94L68 93L66 98L70 99C69.0925 93.0934 75.4119 86.0231 78 94L99 82L96 78L90 86C89.094 81.8581 74.8763 87.6319 71 89L71 85L70 85L70 91C59.9108 86.7772 47.4009 73.732 36 77C36.5742 70.292 29.6023 67.617 24 66z"/>
<path style="fill:#c9ac97; stroke:none;" d="M36 66L37 67L36 66z"/>
<path style="fill:#ebb23a; stroke:none;" d="M88 66L86 73L95 74L95 75L86 75C86.4644 79.1657 85.6651 80.9259 82 83L82 84L99 75L91 70L92 67L88 66z"/>
<path style="fill:#ab672b; stroke:none;" d="M114 66L115 67L114 66z"/>
<path style="fill:#c9ac97; stroke:none;" d="M38 67L39 68L38 67M40 68L41 69L40 68z"/>
<path style="fill:#ab672b; stroke:none;" d="M93 68L94 69L93 68z"/>
<path style="fill:#ebb23a; stroke:none;" d="M94 68L95 69L94 68z"/>
<path style="fill:#faebc6; stroke:none;" d="M25 69L25 71L27 71L25 69z"/>
<path style="fill:#ab672b; stroke:none;" d="M91 69L92 70L91 69M95 69L96 70L95 69z"/>
<path style="fill:#faebc6; stroke:none;" d="M29 70L28 75L34 78L31 70L29 70z"/>
<path style="fill:#ab672b; stroke:none;" d="M92 70L93 71L92 70z"/>
<path style="fill:#ebb23a; stroke:none;" d="M97 70L98 71L97 70z"/>
<path style="fill:#ab672b; stroke:none;" d="M94 71L95 72L94 71M98 71L99 72L98 71z"/>
<path style="fill:#faebc6; stroke:none;" d="M24 72L25 73L24 72M26 73L27 74L26 73z"/>
<path style="fill:#c9ac97; stroke:none;" d="M85 76L89 75C86.866 73.1437 85.6393 73.0775 85 76z"/>
<path style="fill:#ab672b; stroke:none;" d="M97 73L98 74L97 73M25 74L30 94L31 94L30 84L35 86L33 97L33 98L63 112L63 103L67 105L66 117L73 117C76.9228 109.83 85.5296 109.473 91.0255 104.277C95.9754 99.5972 96.8654 89.4847 97 83L78 94C76.5175 85.4898 68.4152 92.0159 70 99L47 87L49 86L49 85L25 74z"/>
<path style="fill:#faebc6; stroke:none;" d="M88 75L88 76L95 75L88 75z"/>
<path style="fill:#ab672b; stroke:none;" d="M82 84L82 85L90 86C93.9144 84.075 95.6506 82.423 96 78L99 82L100 82L99 75L82 84z"/>
<path style="fill:#ebb23a; stroke:none;" d="M84 77L85 78L84 77z"/>
<path style="fill:#faebc6; stroke:none;" d="M41 78L43 84L43 78L41 78z"/>
<path style="fill:#ebb23a; stroke:none;" d="M52 79L66 88C64.9789 82.0457 57.6774 78.3345 52 79z"/>
<path style="fill:#faebc6; stroke:none;" d="M43 79L44 80L43 79M96.3333 79.6667L96.6667 80.3333L96.3333 79.6667M44.3333 81.6667L44.6667 82.3333L44.3333 81.6667z"/>
<path style="fill:#ab672b; stroke:none;" d="M97 81L98 82L97 81M51 82L51 87L52 87L51 82z"/>
<path style="fill:#ebb23a; stroke:none;" d="M40 83L41 84L40 83M73 83L72 85L73 83M30 84L30 92L33 95L31 94L31 95L35 97L35 86L30 84z"/>
<path style="fill:#faebc6; stroke:none;" d="M43 84L44 85L43 84z"/>
<path style="fill:#ab672b; stroke:none;" d="M49 84L50 85L49 84z"/>
<path style="fill:#faebc6; stroke:none;" d="M31 85L32 86L31 85M85.3333 85.6667L85.6667 86.3333L85.3333 85.6667M31.3333 87.6667L31.6667 88.3333L31.3333 87.6667M56.3333 87.6667L56.6667 88.3333L56.3333 87.6667M31 91L32 95L33 95L31 91M61 97L68 93C63.4992 91.2315 60.8283 91.704 61 97z"/>
<path style="fill:#ebb23a; stroke:none;" d="M72 92L72 96L73 96L72 92z"/>
<path style="fill:#faebc6; stroke:none;" d="M72.3333 93.6667L72.6667 94.3333L72.3333 93.6667z"/>
<path style="fill:#c9ac97; stroke:none;" d="M60.3333 94.6667L60.6667 95.3333L60.3333 94.6667z"/>
<path style="fill:#ebb23a; stroke:none;" d="M75 95L76 96L75 95z"/>
<path style="fill:#ab672b; stroke:none;" d="M31 96L32 97L31 96z"/>
<path style="fill:#c9ac97; stroke:none;" d="M62 97L62 98L66 98L62 97z"/>
<path style="fill:#ebb23a; stroke:none;" d="M63 103C63 107.99 61.6179 113.836 67 116L67 105L63 103z"/>
<path style="fill:#faebc6; stroke:none;" d="M64 107L65 108L64 107M64.3333 112.667L64.6667 113.333L64.3333 112.667z"/>
<path style="fill:#ab672b; stroke:none;" d="M64 115L65 116L64 115z"/>
</svg>
